<svg width="74" height="30" viewBox="0 0 74 30" fill="none" xmlns="http://www.w3.org/2000/svg">
<rect y="13.1562" width="17.3042" height="17.3042" rx="1" transform="rotate(-45 0 13.1562)" fill="#2969FF"/>
<g filter="url(#filter0_b_2_42)">
<rect x="6.99524" y="10.2197" width="14.453" height="14.453" rx="1" transform="rotate(-45 6.99524 10.2197)" fill="#6996FF"/>
</g>
<g filter="url(#filter1_b_2_42)">
<rect x="6.63745" y="19.7803" width="14.453" height="14.453" rx="1" transform="rotate(-45 6.63745 19.7803)" fill="#A9C3FF" fill-opacity="0.3"/>
</g>
<path d="M45.4898 10.2693L42.0855 20.4002H39.6984L44.1609 8.45645H45.6866L45.4898 10.2693ZM48.3362 20.4002L44.9155 10.2693L44.7105 8.45645H46.2444L50.7315 20.4002H48.3362ZM48.1804 15.9623V17.7424H41.7738V15.9623H48.1804Z" fill="white"/>
<path d="M54.1687 16.7908L59.2136 8.45645H61.4776V20.4002H59.2136V12.0658L54.1687 20.4002H51.9128V8.45645H54.1687V16.7908Z" fill="white"/>
<path d="M70.7635 16.4709H73.0194C72.9592 17.2693 72.7378 17.9775 72.3549 18.5955C71.9721 19.208 71.4389 19.6892 70.7553 20.0392C70.0717 20.3892 69.2432 20.5642 68.2698 20.5642C67.5206 20.5642 66.8452 20.433 66.2436 20.1705C65.6475 19.9025 65.1362 19.5224 64.7096 19.0303C64.2886 18.5326 63.9659 17.9365 63.7417 17.242C63.5175 16.542 63.4054 15.7572 63.4054 14.8877V13.9771C63.4054 13.1076 63.5202 12.3228 63.7499 11.6228C63.9796 10.9228 64.3077 10.3268 64.7343 9.83457C65.1663 9.33691 65.6831 8.9541 66.2846 8.68613C66.8917 8.41816 67.5698 8.28418 68.319 8.28418C69.2925 8.28418 70.1155 8.46465 70.7882 8.82559C71.4608 9.18105 71.9831 9.67051 72.3549 10.2939C72.7268 10.9174 72.951 11.6338 73.0276 12.4432H70.7717C70.728 11.94 70.6186 11.5135 70.4436 11.1635C70.2741 10.8135 70.0171 10.5482 69.6725 10.3678C69.3335 10.1818 68.8823 10.0889 68.319 10.0889C67.8815 10.0889 67.496 10.1709 67.1624 10.335C66.8343 10.499 66.5608 10.7451 66.3421 11.0732C66.1233 11.3959 65.9593 11.8006 65.8499 12.2873C65.7405 12.7685 65.6858 13.3264 65.6858 13.9607V14.8877C65.6858 15.4947 65.735 16.0389 65.8335 16.5201C65.9319 17.0014 66.085 17.4088 66.2928 17.7424C66.5007 18.076 66.7686 18.3303 67.0968 18.5053C67.4249 18.6803 67.8159 18.7678 68.2698 18.7678C68.8221 18.7678 69.2706 18.6803 69.6151 18.5053C69.9651 18.3303 70.2303 18.0732 70.4108 17.7342C70.5967 17.3951 70.7143 16.974 70.7635 16.4709Z" fill="white"/>
<defs>
<filter id="filter0_b_2_42" x="3.40942" y="-3.58594" width="27.6112" height="27.6113" filterUnits="userSpaceOnUse" color-interpolation-filters="sRGB">
<feFlood flood-opacity="0" result="BackgroundImageFix"/>
<feGaussianBlur in="BackgroundImage" stdDeviation="2"/>
<feComposite in2="SourceAlpha" operator="in" result="effect1_backgroundBlur_2_42"/>
<feBlend mode="normal" in="SourceGraphic" in2="effect1_backgroundBlur_2_42" result="shape"/>
</filter>
<filter id="filter1_b_2_42" x="3.05164" y="5.97461" width="27.6112" height="27.6113" filterUnits="userSpaceOnUse" color-interpolation-filters="sRGB">
<feFlood flood-opacity="0" result="BackgroundImageFix"/>
<feGaussianBlur in="BackgroundImage" stdDeviation="2"/>
<feComposite in2="SourceAlpha" operator="in" result="effect1_backgroundBlur_2_42"/>
<feBlend mode="normal" in="SourceGraphic" in2="effect1_backgroundBlur_2_42" result="shape"/>
</filter>
</defs>
</svg>
